<?xml version="1.0" encoding="UTF-8" standalone="no"?>
<!-- Created with Inkscape (http://www.inkscape.org/) -->
<svg
   xmlns:svg="http://www.w3.org/2000/svg"
   xmlns="http://www.w3.org/2000/svg"
   xmlns:xlink="http://www.w3.org/1999/xlink"
   xmlns:inkscape="http://www.inkscape.org/namespaces/inkscape"
   version="1.0"
   width="64"
   height="64"
   id="svg2644">
  <defs
     id="defs2646">
    <filter
       id="filter3519"
       height="1.7384099"
       y="-0.36920497"
       width="1.4894464"
       x="-0.24472319">
      <feGaussianBlur
         id="feGaussianBlur3521"
         stdDeviation="7.1634474"
         inkscape:collect="always" />
    </filter>
    <filter
       id="filter7056"
       height="1.452233"
       y="-0.22611649"
       width="1.4550931"
       x="-0.22754654">
      <feGaussianBlur
         id="feGaussianBlur7058"
         stdDeviation="7.3617715"
         inkscape:collect="always" />
    </filter>
    <linearGradient
       id="linearGradient6702">
      <stop
         style="stop-color:#291901;stop-opacity:1"
         offset="0"
         id="stop6704" />
      <stop
         style="stop-color:#755a2e;stop-opacity:0"
         offset="1"
         id="stop6706" />
    </linearGradient>
    <filter
       id="filter5544"
       height="1.5689383"
       y="-0.28446916"
       width="1.5725365"
       x="-0.28626823">
      <feGaussianBlur
         id="feGaussianBlur5546"
         stdDeviation="9.2615835"
         inkscape:collect="always" />
    </filter>
    <filter
       id="filter5168">
      <feGaussianBlur
         id="feGaussianBlur5170"
         stdDeviation="2.7316386"
         inkscape:collect="always" />
    </filter>
    <filter
       id="filter4734"
       height="1.8898779"
       y="-0.44493893"
       width="1.8955057"
       x="-0.44775286">
      <feGaussianBlur
         id="feGaussianBlur4736"
         stdDeviation="14.486067"
         inkscape:collect="always" />
    </filter>
    <linearGradient
       id="linearGradient4368">
      <stop
         style="stop-color:#ad6b08;stop-opacity:1"
         offset="0"
         id="stop4370" />
      <stop
         style="stop-color:#755a2e;stop-opacity:0"
         offset="1"
         id="stop4372" />
    </linearGradient>
    <linearGradient
       id="linearGradient3173">
      <stop
         style="stop-color:#3f2c04;stop-opacity:1"
         offset="0"
         id="stop3175" />
      <stop
         style="stop-color:#7f5608;stop-opacity:1"
         offset="0.04899821"
         id="stop7878" />
      <stop
         style="stop-color:#815409;stop-opacity:1"
         offset="0.36619717"
         id="stop7876" />
      <stop
         style="stop-color:#542d07;stop-opacity:1"
         offset="1"
         id="stop3177" />
    </linearGradient>
    <linearGradient
       x1="246.00868"
       y1="56.68404"
       x2="246.70883"
       y2="118.11262"
       id="linearGradient2805"
       xlink:href="#linearGradient3173"
       gradientUnits="userSpaceOnUse"
       gradientTransform="matrix(0.5305836,0,0,1.0432638,82.923381,401.04438)" />
    <linearGradient
       x1="246.00868"
       y1="56.68404"
       x2="246.70883"
       y2="118.11262"
       id="linearGradient2807"
       xlink:href="#linearGradient3173"
       gradientUnits="userSpaceOnUse"
       gradientTransform="matrix(0.5305836,0,0,1.0432638,85.780523,406.04438)" />
    <linearGradient
       x1="246.00868"
       y1="56.68404"
       x2="246.70883"
       y2="118.11262"
       id="linearGradient2809"
       xlink:href="#linearGradient3173"
       gradientUnits="userSpaceOnUse"
       gradientTransform="matrix(0.5305836,0,0,1.0432638,90.780527,409.6158)" />
    <linearGradient
       x1="246.00868"
       y1="56.68404"
       x2="246.70883"
       y2="118.11262"
       id="linearGradient2811"
       xlink:href="#linearGradient3173"
       gradientUnits="userSpaceOnUse"
       gradientTransform="matrix(0.5305836,0,0,1.0432638,94.351953,412.47295)" />
    <linearGradient
       x1="246.00868"
       y1="56.68404"
       x2="246.70883"
       y2="118.11262"
       id="linearGradient2813"
       xlink:href="#linearGradient3173"
       gradientUnits="userSpaceOnUse"
       gradientTransform="matrix(0.5305836,0,0,1.0432638,98.637674,415.3301)" />
    <linearGradient
       x1="246.00868"
       y1="56.68404"
       x2="246.70883"
       y2="118.11262"
       id="linearGradient2815"
       xlink:href="#linearGradient3173"
       gradientUnits="userSpaceOnUse"
       gradientTransform="matrix(0.5305836,0,0,1.0432638,100.78053,418.90152)" />
    <linearGradient
       x1="246.00868"
       y1="56.68404"
       x2="246.70883"
       y2="118.11262"
       id="linearGradient2817"
       xlink:href="#linearGradient3173"
       gradientUnits="userSpaceOnUse"
       gradientTransform="matrix(0.5305836,0,0,1.0432638,103.78052,422.04438)" />
    <linearGradient
       x1="246.00868"
       y1="56.68404"
       x2="246.70883"
       y2="118.11262"
       id="linearGradient2819"
       xlink:href="#linearGradient3173"
       gradientUnits="userSpaceOnUse"
       gradientTransform="matrix(0.5305836,0,0,1.0432638,108.06624,425.61581)" />
    <linearGradient
       x1="246.00868"
       y1="56.68404"
       x2="246.70883"
       y2="118.11262"
       id="linearGradient2821"
       xlink:href="#linearGradient3173"
       gradientUnits="userSpaceOnUse"
       gradientTransform="matrix(0.5305836,0,0,1.0432638,112.35195,429.18723)" />
    <linearGradient
       x1="246.00868"
       y1="56.68404"
       x2="246.70883"
       y2="118.11262"
       id="linearGradient2823"
       xlink:href="#linearGradient3173"
       gradientUnits="userSpaceOnUse"
       gradientTransform="matrix(0.5305836,0,0,1.0432638,115.2091,432.04438)" />
    <linearGradient
       x1="246.00868"
       y1="56.68404"
       x2="246.70883"
       y2="118.11262"
       id="linearGradient2825"
       xlink:href="#linearGradient3173"
       gradientUnits="userSpaceOnUse"
       gradientTransform="matrix(0.5305836,0,0,1.0432638,82.923381,401.04438)" />
    <linearGradient
       x1="246.00868"
       y1="56.68404"
       x2="246.70883"
       y2="118.11262"
       id="linearGradient2827"
       xlink:href="#linearGradient3173"
       gradientUnits="userSpaceOnUse"
       gradientTransform="matrix(0.5305836,0,0,1.0432638,85.780523,406.04438)" />
    <linearGradient
       x1="246.00868"
       y1="56.68404"
       x2="246.70883"
       y2="118.11262"
       id="linearGradient2829"
       xlink:href="#linearGradient3173"
       gradientUnits="userSpaceOnUse"
       gradientTransform="matrix(0.5305836,0,0,1.0432638,90.780527,409.6158)" />
    <linearGradient
       x1="246.00868"
       y1="56.68404"
       x2="246.70883"
       y2="118.11262"
       id="linearGradient2831"
       xlink:href="#linearGradient3173"
       gradientUnits="userSpaceOnUse"
       gradientTransform="matrix(0.5305836,0,0,1.0432638,94.351953,412.47295)" />
    <linearGradient
       x1="246.00868"
       y1="56.68404"
       x2="246.70883"
       y2="118.11262"
       id="linearGradient2833"
       xlink:href="#linearGradient3173"
       gradientUnits="userSpaceOnUse"
       gradientTransform="matrix(0.5305836,0,0,1.0432638,98.637674,415.3301)" />
    <linearGradient
       x1="246.00868"
       y1="56.68404"
       x2="246.70883"
       y2="118.11262"
       id="linearGradient2835"
       xlink:href="#linearGradient3173"
       gradientUnits="userSpaceOnUse"
       gradientTransform="matrix(0.5305836,0,0,1.0432638,100.78053,418.90152)" />
    <linearGradient
       x1="246.00868"
       y1="56.68404"
       x2="246.70883"
       y2="118.11262"
       id="linearGradient2837"
       xlink:href="#linearGradient3173"
       gradientUnits="userSpaceOnUse"
       gradientTransform="matrix(0.5305836,0,0,1.0432638,103.78052,422.04438)" />
    <linearGradient
       x1="246.00868"
       y1="56.68404"
       x2="246.70883"
       y2="118.11262"
       id="linearGradient2839"
       xlink:href="#linearGradient3173"
       gradientUnits="userSpaceOnUse"
       gradientTransform="matrix(0.5305836,0,0,1.0432638,108.06624,425.61581)" />
    <linearGradient
       x1="246.00868"
       y1="56.68404"
       x2="246.70883"
       y2="118.11262"
       id="linearGradient2841"
       xlink:href="#linearGradient3173"
       gradientUnits="userSpaceOnUse"
       gradientTransform="matrix(0.5305836,0,0,1.0432638,112.35195,429.18723)" />
    <linearGradient
       x1="246.00868"
       y1="56.68404"
       x2="246.70883"
       y2="118.11262"
       id="linearGradient2843"
       xlink:href="#linearGradient3173"
       gradientUnits="userSpaceOnUse"
       gradientTransform="matrix(0.5305836,0,0,1.0432638,115.2091,432.04438)" />
    <linearGradient
       x1="246.00868"
       y1="56.68404"
       x2="246.70883"
       y2="118.11262"
       id="linearGradient2845"
       xlink:href="#linearGradient3173"
       gradientUnits="userSpaceOnUse"
       gradientTransform="matrix(0.5305836,0,0,1.0432638,209.35196,191.04438)" />
    <radialGradient
       cx="501.22723"
       cy="229.6548"
       r="38.82338"
       fx="501.22723"
       fy="229.6548"
       id="radialGradient2847"
       xlink:href="#linearGradient4368"
       gradientUnits="userSpaceOnUse"
       gradientTransform="matrix(2.5862213,0.1155974,-0.1081296,2.4191493,-811.65345,-482.42645)" />
    <linearGradient
       x1="246.00868"
       y1="56.68404"
       x2="246.70883"
       y2="118.11262"
       id="linearGradient2849"
       xlink:href="#linearGradient3173"
       gradientUnits="userSpaceOnUse"
       gradientTransform="matrix(0.5305836,0,0,1.0432638,282.2091,143.18724)" />
    <radialGradient
       cx="501.22723"
       cy="229.6548"
       r="38.82338"
       fx="501.22723"
       fy="229.6548"
       id="radialGradient2851"
       xlink:href="#linearGradient4368"
       gradientUnits="userSpaceOnUse"
       gradientTransform="matrix(2.5862213,0.1155974,-0.1081296,2.4191493,-811.65345,-482.42645)" />
    <radialGradient
       cx="501.22723"
       cy="229.6548"
       r="38.82338"
       fx="501.22723"
       fy="229.6548"
       id="radialGradient2853"
       xlink:href="#linearGradient6702"
       gradientUnits="userSpaceOnUse"
       gradientTransform="matrix(2.5862213,0.1155974,-0.1081296,2.4191493,-811.65345,-482.42645)" />
    <linearGradient
       x1="246.00868"
       y1="56.68404"
       x2="246.70883"
       y2="118.11262"
       id="linearGradient2879"
       xlink:href="#linearGradient3173"
       gradientUnits="userSpaceOnUse"
       gradientTransform="matrix(0.5305836,0,0,1.0432638,282.2091,143.18724)" />
    <radialGradient
       cx="501.22723"
       cy="229.6548"
       r="38.82338"
       fx="501.22723"
       fy="229.6548"
       id="radialGradient2881"
       xlink:href="#linearGradient4368"
       gradientUnits="userSpaceOnUse"
       gradientTransform="matrix(2.5862213,0.1155974,-0.1081296,2.4191493,-811.65345,-482.42645)" />
    <radialGradient
       cx="501.22723"
       cy="229.6548"
       r="38.82338"
       fx="501.22723"
       fy="229.6548"
       id="radialGradient2883"
       xlink:href="#linearGradient6702"
       gradientUnits="userSpaceOnUse"
       gradientTransform="matrix(2.5862213,0.1155974,-0.1081296,2.4191493,-811.65345,-482.42645)" />
    <linearGradient
       x1="246.00868"
       y1="56.68404"
       x2="246.70883"
       y2="118.11262"
       id="linearGradient2897"
       xlink:href="#linearGradient3173"
       gradientUnits="userSpaceOnUse"
       gradientTransform="matrix(0.5305836,0,0,1.0432638,282.2091,143.18724)" />
    <radialGradient
       cx="501.22723"
       cy="229.6548"
       r="38.82338"
       fx="501.22723"
       fy="229.6548"
       id="radialGradient2899"
       xlink:href="#linearGradient4368"
       gradientUnits="userSpaceOnUse"
       gradientTransform="matrix(2.5862213,0.1155974,-0.1081296,2.4191493,-811.65345,-482.42645)" />
    <radialGradient
       cx="501.22723"
       cy="229.6548"
       r="38.82338"
       fx="501.22723"
       fy="229.6548"
       id="radialGradient2901"
       xlink:href="#linearGradient6702"
       gradientUnits="userSpaceOnUse"
       gradientTransform="matrix(2.5862213,0.1155974,-0.1081296,2.4191493,-811.65345,-482.42645)" />
  </defs>
  <g
     id="layer1">
    <path
       d="M 1.9950209,23.002217 L 53.193826,16.429929 L 62.368607,51.387531 L 3.0608743,59.881749 L 1.9950209,23.002217 z "
       style="fill:#b68869;fill-opacity:1;stroke:#000000;stroke-width:0.25753543;stroke-opacity:1"
       id="path2423" />
    <g
       transform="matrix(0.3082674,0,0,0.3082674,-54.06528,-46.038313)"
       id="g2463">
      <g
         transform="translate(-7.1428571,31.428571)"
         id="g2465">
        <g
           transform="matrix(0.9034904,-0.1830947,0,0.9144629,38.196319,-270.85523)"
           id="g2467">
          <path
             d="M 175.01753,513.05146 C 176.66734,525.48301 176.12986,534.7481 175.96858,544.93274 C 173.46547,552.96656 178.25646,564.51142 182.7614,561.30147 C 192.76978,559.04558 202.8909,561.86464 212.8857,559.21129 C 220.49252,559.51382 233.03098,560.29014 240.6377,558.74492 C 249.12685,565.10282 251.44778,550.71948 250.31867,532.99625 C 250.88496,518.30618 250.42859,514.55937 255.48807,510.12593 C 259.07139,495.3701 250.95433,483.94455 243.40402,480.18371 C 220.05046,472.66206 197.43509,474.7067 174.59834,486.02127 C 169.38953,491.84381 169.49511,507.98436 175.01753,513.05146 z "
             style="fill:url(#linearGradient2805);fill-opacity:1;fill-rule:evenodd;stroke:none;stroke-width:1px;stroke-linecap:butt;stroke-linejoin:miter;stroke-opacity:1"
             id="path2469" />
          <path
             d="M 177.87467,518.05146 C 179.52448,530.48301 178.987,539.7481 178.82572,549.93274 C 176.32261,557.96656 181.1136,569.51142 185.61854,566.30147 C 195.62692,564.04558 205.74804,566.86464 215.74284,564.21129 C 223.34966,564.51382 235.88812,565.29014 243.49484,563.74492 C 251.98399,570.10282 254.30492,555.71948 253.17581,537.99625 C 253.7421,523.30618 253.28573,519.55937 258.34521,515.12593 C 261.92853,500.3701 253.81147,488.94455 246.26116,485.18371 C 222.9076,477.66206 200.29223,479.7067 177.45548,491.02127 C 172.24667,496.84381 172.35225,512.98436 177.87467,518.05146 z "
             style="fill:url(#linearGradient2807);fill-opacity:1;fill-rule:evenodd;stroke:none;stroke-width:1px;stroke-linecap:butt;stroke-linejoin:miter;stroke-opacity:1"
             id="path2471" />
          <path
             d="M 182.87467,521.62288 C 184.52448,534.05443 183.987,543.31952 183.82572,553.50416 C 181.32261,561.53798 186.1136,573.08284 190.61854,569.87289 C 200.62692,567.617 210.74804,570.43606 220.74284,567.78271 C 228.34966,568.08524 240.88812,568.86156 248.49484,567.31634 C 256.98399,573.67424 259.30492,559.2909 258.17581,541.56767 C 258.7421,526.8776 258.28573,523.13079 263.34521,518.69735 C 266.92853,503.94152 258.81147,492.51597 251.26116,488.75513 C 227.9076,481.23348 205.29223,483.27812 182.45548,494.59269 C 177.24667,500.41523 177.35225,516.55578 182.87467,521.62288 z "
             style="fill:url(#linearGradient2809);fill-opacity:1;fill-rule:evenodd;stroke:none;stroke-width:1px;stroke-linecap:butt;stroke-linejoin:miter;stroke-opacity:1"
             id="path2473" />
          <path
             d="M 186.4461,524.48003 C 188.09591,536.91158 187.55843,546.17667 187.39715,556.36131 C 184.89404,564.39513 189.68503,575.93999 194.18997,572.73004 C 204.19835,570.47415 214.31947,573.29321 224.31427,570.63986 C 231.92109,570.94239 244.45955,571.71871 252.06627,570.17349 C 260.55542,576.53139 262.87635,562.14805 261.74724,544.42482 C 262.31353,529.73475 261.85716,525.98794 266.91664,521.5545 C 270.49996,506.79867 262.3829,495.37312 254.83259,491.61228 C 231.47903,484.09063 208.86366,486.13527 186.02691,497.44984 C 180.8181,503.27238 180.92368,519.41293 186.4461,524.48003 z "
             style="fill:url(#linearGradient2811);fill-opacity:1;fill-rule:evenodd;stroke:none;stroke-width:1px;stroke-linecap:butt;stroke-linejoin:miter;stroke-opacity:1"
             id="path2475" />
          <path
             d="M 190.73182,527.33718 C 192.38163,539.76873 191.84415,549.03382 191.68287,559.21846 C 189.17976,567.25228 193.97075,578.79714 198.47569,575.58719 C 208.48407,573.3313 218.60519,576.15036 228.59999,573.49701 C 236.20681,573.79954 248.74527,574.57586 256.35199,573.03064 C 264.84114,579.38854 267.16207,565.0052 266.03296,547.28197 C 266.59925,532.5919 266.14288,528.84509 271.20236,524.41165 C 274.78568,509.65582 266.66862,498.23027 259.11831,494.46943 C 235.76475,486.94778 213.14938,488.99242 190.31263,500.30699 C 185.10382,506.12953 185.2094,522.27008 190.73182,527.33718 z "
             style="fill:url(#linearGradient2813);fill-opacity:1;fill-rule:evenodd;stroke:none;stroke-width:1px;stroke-linecap:butt;stroke-linejoin:miter;stroke-opacity:1"
             id="path2477" />
          <path
             d="M 192.87468,530.9086 C 194.52449,543.34016 193.98701,552.60525 193.82573,562.78989 C 191.32262,570.82371 196.11361,582.36857 200.61855,579.15862 C 210.62693,576.90273 220.74805,579.72179 230.74285,577.06844 C 238.34967,577.37097 250.88813,578.14729 258.49485,576.60207 C 266.984,582.95997 269.30493,568.57663 268.17582,550.8534 C 268.74211,536.16332 268.28574,532.41651 273.34522,527.98307 C 276.92854,513.22724 268.81148,501.80169 261.26117,498.04085 C 237.90761,490.5192 215.29224,492.56384 192.45549,503.87841 C 187.24668,509.70095 187.35226,525.8415 192.87468,530.9086 z "
             style="fill:url(#linearGradient2815);fill-opacity:1;fill-rule:evenodd;stroke:none;stroke-width:1px;stroke-linecap:butt;stroke-linejoin:miter;stroke-opacity:1"
             id="path2479" />
          <path
             d="M 195.87467,534.05146 C 197.52448,546.48302 196.987,555.74811 196.82572,565.93275 C 194.32261,573.96657 199.1136,585.51143 203.61854,582.30148 C 213.62692,580.04559 223.74804,582.86465 233.74284,580.2113 C 241.34966,580.51383 253.88812,581.29015 261.49484,579.74493 C 269.98399,586.10283 272.30492,571.71949 271.17581,553.99626 C 271.7421,539.30618 271.28573,535.55937 276.34521,531.12593 C 279.92853,516.3701 271.81147,504.94455 264.26116,501.18371 C 240.9076,493.66206 218.29223,495.7067 195.45548,507.02127 C 190.24667,512.84381 190.35225,528.98436 195.87467,534.05146 z "
             style="fill:url(#linearGradient2817);fill-opacity:1;fill-rule:evenodd;stroke:none;stroke-width:1px;stroke-linecap:butt;stroke-linejoin:miter;stroke-opacity:1"
             id="path2481" />
          <path
             d="M 200.16039,537.62289 C 201.8102,550.05444 201.27272,559.31953 201.11144,569.50417 C 198.60833,577.53799 203.39932,589.08285 207.90426,585.8729 C 217.91264,583.61701 228.03376,586.43607 238.02856,583.78272 C 245.63538,584.08525 258.17384,584.86157 265.78056,583.31635 C 274.26971,589.67425 276.59064,575.29091 275.46153,557.56768 C 276.02782,542.87761 275.57145,539.1308 280.63093,534.69736 C 284.21425,519.94153 276.09719,508.51598 268.54688,504.75514 C 245.19332,497.23349 222.57795,499.27813 199.7412,510.5927 C 194.53239,516.41524 194.63797,532.55579 200.16039,537.62289 z "
             style="fill:url(#linearGradient2819);fill-opacity:1;fill-rule:evenodd;stroke:none;stroke-width:1px;stroke-linecap:butt;stroke-linejoin:miter;stroke-opacity:1"
             id="path2483" />
          <path
             d="M 204.4461,541.19431 C 206.09591,553.62586 205.55843,562.89095 205.39715,573.07559 C 202.89404,581.10941 207.68503,592.65427 212.18997,589.44432 C 222.19835,587.18843 232.31947,590.00749 242.31427,587.35414 C 249.92109,587.65667 262.45955,588.43299 270.06627,586.88777 C 278.55542,593.24567 280.87635,578.86233 279.74724,561.1391 C 280.31353,546.44903 279.85716,542.70222 284.91664,538.26878 C 288.49996,523.51295 280.3829,512.0874 272.83259,508.32656 C 249.47903,500.80491 226.86366,502.84955 204.02691,514.16412 C 198.8181,519.98666 198.92368,536.12721 204.4461,541.19431 z "
             style="fill:url(#linearGradient2821);fill-opacity:1;fill-rule:evenodd;stroke:none;stroke-width:1px;stroke-linecap:butt;stroke-linejoin:miter;stroke-opacity:1"
             id="path2485" />
          <path
             d="M 207.30325,544.05146 C 208.95306,556.48301 208.41558,565.7481 208.2543,575.93274 C 205.75119,583.96656 210.54218,595.51142 215.04712,592.30147 C 225.0555,590.04558 235.17662,592.86464 245.17142,590.21129 C 252.77824,590.51382 265.3167,591.29014 272.92342,589.74492 C 281.41257,596.10282 283.7335,581.71948 282.60439,563.99625 C 283.17068,549.30618 282.71431,545.55937 287.77379,541.12593 C 291.35711,526.3701 283.24005,514.94455 275.68974,511.18371 C 252.33618,503.66206 229.72081,505.7067 206.88406,517.02127 C 201.67525,522.84381 201.78083,538.98436 207.30325,544.05146 z "
             style="fill:url(#linearGradient2823);fill-opacity:1;fill-rule:evenodd;stroke:none;stroke-width:1px;stroke-linecap:butt;stroke-linejoin:miter;stroke-opacity:1"
             id="path2487" />
        </g>
        <g
           transform="matrix(0.9034904,-0.1830947,0,0.9144629,64.616681,-252.03491)"
           id="g2489">
          <path
             d="M 175.01753,513.05146 C 176.66734,525.48301 176.12986,534.7481 175.96858,544.93274 C 173.46547,552.96656 178.25646,564.51142 182.7614,561.30147 C 192.76978,559.04558 202.8909,561.86464 212.8857,559.21129 C 220.49252,559.51382 233.03098,560.29014 240.6377,558.74492 C 249.12685,565.10282 251.44778,550.71948 250.31867,532.99625 C 250.88496,518.30618 250.42859,514.55937 255.48807,510.12593 C 259.07139,495.3701 250.95433,483.94455 243.40402,480.18371 C 220.05046,472.66206 197.43509,474.7067 174.59834,486.02127 C 169.38953,491.84381 169.49511,507.98436 175.01753,513.05146 z "
             style="fill:url(#linearGradient2825);fill-opacity:1;fill-rule:evenodd;stroke:none;stroke-width:1px;stroke-linecap:butt;stroke-linejoin:miter;stroke-opacity:1"
             id="path2491" />
          <path
             d="M 177.87467,518.05146 C 179.52448,530.48301 178.987,539.7481 178.82572,549.93274 C 176.32261,557.96656 181.1136,569.51142 185.61854,566.30147 C 195.62692,564.04558 205.74804,566.86464 215.74284,564.21129 C 223.34966,564.51382 235.88812,565.29014 243.49484,563.74492 C 251.98399,570.10282 254.30492,555.71948 253.17581,537.99625 C 253.7421,523.30618 253.28573,519.55937 258.34521,515.12593 C 261.92853,500.3701 253.81147,488.94455 246.26116,485.18371 C 222.9076,477.66206 200.29223,479.7067 177.45548,491.02127 C 172.24667,496.84381 172.35225,512.98436 177.87467,518.05146 z "
             style="fill:url(#linearGradient2827);fill-opacity:1;fill-rule:evenodd;stroke:none;stroke-width:1px;stroke-linecap:butt;stroke-linejoin:miter;stroke-opacity:1"
             id="path2493" />
          <path
             d="M 182.87467,521.62288 C 184.52448,534.05443 183.987,543.31952 183.82572,553.50416 C 181.32261,561.53798 186.1136,573.08284 190.61854,569.87289 C 200.62692,567.617 210.74804,570.43606 220.74284,567.78271 C 228.34966,568.08524 240.88812,568.86156 248.49484,567.31634 C 256.98399,573.67424 259.30492,559.2909 258.17581,541.56767 C 258.7421,526.8776 258.28573,523.13079 263.34521,518.69735 C 266.92853,503.94152 258.81147,492.51597 251.26116,488.75513 C 227.9076,481.23348 205.29223,483.27812 182.45548,494.59269 C 177.24667,500.41523 177.35225,516.55578 182.87467,521.62288 z "
             style="fill:url(#linearGradient2829);fill-opacity:1;fill-rule:evenodd;stroke:none;stroke-width:1px;stroke-linecap:butt;stroke-linejoin:miter;stroke-opacity:1"
             id="path2495" />
          <path
             d="M 186.4461,524.48003 C 188.09591,536.91158 187.55843,546.17667 187.39715,556.36131 C 184.89404,564.39513 189.68503,575.93999 194.18997,572.73004 C 204.19835,570.47415 214.31947,573.29321 224.31427,570.63986 C 231.92109,570.94239 244.45955,571.71871 252.06627,570.17349 C 260.55542,576.53139 262.87635,562.14805 261.74724,544.42482 C 262.31353,529.73475 261.85716,525.98794 266.91664,521.5545 C 270.49996,506.79867 262.3829,495.37312 254.83259,491.61228 C 231.47903,484.09063 208.86366,486.13527 186.02691,497.44984 C 180.8181,503.27238 180.92368,519.41293 186.4461,524.48003 z "
             style="fill:url(#linearGradient2831);fill-opacity:1;fill-rule:evenodd;stroke:none;stroke-width:1px;stroke-linecap:butt;stroke-linejoin:miter;stroke-opacity:1"
             id="path2497" />
          <path
             d="M 190.73182,527.33718 C 192.38163,539.76873 191.84415,549.03382 191.68287,559.21846 C 189.17976,567.25228 193.97075,578.79714 198.47569,575.58719 C 208.48407,573.3313 218.60519,576.15036 228.59999,573.49701 C 236.20681,573.79954 248.74527,574.57586 256.35199,573.03064 C 264.84114,579.38854 267.16207,565.0052 266.03296,547.28197 C 266.59925,532.5919 266.14288,528.84509 271.20236,524.41165 C 274.78568,509.65582 266.66862,498.23027 259.11831,494.46943 C 235.76475,486.94778 213.14938,488.99242 190.31263,500.30699 C 185.10382,506.12953 185.2094,522.27008 190.73182,527.33718 z "
             style="fill:url(#linearGradient2833);fill-opacity:1;fill-rule:evenodd;stroke:none;stroke-width:1px;stroke-linecap:butt;stroke-linejoin:miter;stroke-opacity:1"
             id="path2499" />
          <path
             d="M 192.87468,530.9086 C 194.52449,543.34016 193.98701,552.60525 193.82573,562.78989 C 191.32262,570.82371 196.11361,582.36857 200.61855,579.15862 C 210.62693,576.90273 220.74805,579.72179 230.74285,577.06844 C 238.34967,577.37097 250.88813,578.14729 258.49485,576.60207 C 266.984,582.95997 269.30493,568.57663 268.17582,550.8534 C 268.74211,536.16332 268.28574,532.41651 273.34522,527.98307 C 276.92854,513.22724 268.81148,501.80169 261.26117,498.04085 C 237.90761,490.5192 215.29224,492.56384 192.45549,503.87841 C 187.24668,509.70095 187.35226,525.8415 192.87468,530.9086 z "
             style="fill:url(#linearGradient2835);fill-opacity:1;fill-rule:evenodd;stroke:none;stroke-width:1px;stroke-linecap:butt;stroke-linejoin:miter;stroke-opacity:1"
             id="path2501" />
          <path
             d="M 195.87467,534.05146 C 197.52448,546.48302 196.987,555.74811 196.82572,565.93275 C 194.32261,573.96657 199.1136,585.51143 203.61854,582.30148 C 213.62692,580.04559 223.74804,582.86465 233.74284,580.2113 C 241.34966,580.51383 253.88812,581.29015 261.49484,579.74493 C 269.98399,586.10283 272.30492,571.71949 271.17581,553.99626 C 271.7421,539.30618 271.28573,535.55937 276.34521,531.12593 C 279.92853,516.3701 271.81147,504.94455 264.26116,501.18371 C 240.9076,493.66206 218.29223,495.7067 195.45548,507.02127 C 190.24667,512.84381 190.35225,528.98436 195.87467,534.05146 z "
             style="fill:url(#linearGradient2837);fill-opacity:1;fill-rule:evenodd;stroke:none;stroke-width:1px;stroke-linecap:butt;stroke-linejoin:miter;stroke-opacity:1"
             id="path2503" />
          <path
             d="M 200.16039,537.62289 C 201.8102,550.05444 201.27272,559.31953 201.11144,569.50417 C 198.60833,577.53799 203.39932,589.08285 207.90426,585.8729 C 217.91264,583.61701 228.03376,586.43607 238.02856,583.78272 C 245.63538,584.08525 258.17384,584.86157 265.78056,583.31635 C 274.26971,589.67425 276.59064,575.29091 275.46153,557.56768 C 276.02782,542.87761 275.57145,539.1308 280.63093,534.69736 C 284.21425,519.94153 276.09719,508.51598 268.54688,504.75514 C 245.19332,497.23349 222.57795,499.27813 199.7412,510.5927 C 194.53239,516.41524 194.63797,532.55579 200.16039,537.62289 z "
             style="fill:url(#linearGradient2839);fill-opacity:1;fill-rule:evenodd;stroke:none;stroke-width:1px;stroke-linecap:butt;stroke-linejoin:miter;stroke-opacity:1"
             id="path2505" />
          <path
             d="M 204.4461,541.19431 C 206.09591,553.62586 205.55843,562.89095 205.39715,573.07559 C 202.89404,581.10941 207.68503,592.65427 212.18997,589.44432 C 222.19835,587.18843 232.31947,590.00749 242.31427,587.35414 C 249.92109,587.65667 262.45955,588.43299 270.06627,586.88777 C 278.55542,593.24567 280.87635,578.86233 279.74724,561.1391 C 280.31353,546.44903 279.85716,542.70222 284.91664,538.26878 C 288.49996,523.51295 280.3829,512.0874 272.83259,508.32656 C 249.47903,500.80491 226.86366,502.84955 204.02691,514.16412 C 198.8181,519.98666 198.92368,536.12721 204.4461,541.19431 z "
             style="fill:url(#linearGradient2841);fill-opacity:1;fill-rule:evenodd;stroke:none;stroke-width:1px;stroke-linecap:butt;stroke-linejoin:miter;stroke-opacity:1"
             id="path2507" />
          <path
             d="M 207.30325,544.05146 C 208.95306,556.48301 208.41558,565.7481 208.2543,575.93274 C 205.75119,583.96656 210.54218,595.51142 215.04712,592.30147 C 225.0555,590.04558 235.17662,592.86464 245.17142,590.21129 C 252.77824,590.51382 265.3167,591.29014 272.92342,589.74492 C 281.41257,596.10282 283.7335,581.71948 282.60439,563.99625 C 283.17068,549.30618 282.71431,545.55937 287.77379,541.12593 C 291.35711,526.3701 283.24005,514.94455 275.68974,511.18371 C 252.33618,503.66206 229.72081,505.7067 206.88406,517.02127 C 201.67525,522.84381 201.78083,538.98436 207.30325,544.05146 z "
             style="fill:url(#linearGradient2843);fill-opacity:1;fill-rule:evenodd;stroke:none;stroke-width:1px;stroke-linecap:butt;stroke-linejoin:miter;stroke-opacity:1"
             id="path2509" />
        </g>
        <g
           transform="matrix(0.9034904,-0.1830947,0,0.9144629,-17.342817,-11.38219)"
           id="g2511">
          <path
             d="M 301.44611,303.05146 C 303.09592,315.48301 302.55844,324.7481 302.39716,334.93274 C 299.89405,342.96656 304.68504,354.51142 309.18998,351.30147 C 319.19836,349.04558 329.31948,351.86464 339.31428,349.21129 C 346.9211,349.51382 359.45956,350.29014 367.06628,348.74492 C 375.55543,355.10282 377.87636,340.71948 376.74725,322.99625 C 377.31354,308.30618 376.85717,304.55937 381.91665,300.12593 C 385.49997,285.3701 377.38291,273.94455 369.8326,270.18371 C 346.47904,262.66206 323.86367,264.7067 301.02692,276.02127 C 295.81811,281.84381 295.92369,297.98436 301.44611,303.05146 z "
             style="fill:url(#linearGradient2845);fill-opacity:1;fill-rule:evenodd;stroke:none;stroke-width:1px;stroke-linecap:butt;stroke-linejoin:miter;stroke-opacity:1"
             id="path2513" />
          <path
             d="M 303.61526,303.20134 C 305.18055,314.99598 304.67061,323.7864 304.51759,333.44926 C 302.14273,341.07149 306.68826,352.02489 310.9624,348.97939 C 320.45802,346.83907 330.06062,349.5137 339.54337,346.99629 C 346.76047,347.28332 358.65655,348.01987 365.87356,346.55381 C 373.9278,352.58599 376.12982,338.93954 375.05856,322.12431 C 375.59583,308.18684 375.16285,304.632 379.96312,300.42568 C 383.36285,286.42585 375.66165,275.58566 368.49816,272.01749 C 346.34107,264.8812 324.88432,266.82108 303.21756,277.55598 C 298.2756,283.0802 298.37578,298.39384 303.61526,303.20134 z "
             style="fill:#fdf4e2;fill-opacity:1;fill-rule:evenodd;stroke:none;stroke-width:1px;stroke-linecap:butt;stroke-linejoin:miter;stroke-opacity:1;filter:url(#filter5168)"
             id="path2515" />
        </g>
        <path
           d="M 424.81877,125.87612 C 426.31564,137.15523 425.82799,145.56143 425.68166,154.80194 C 423.4106,162.09101 427.75745,172.56564 431.84477,169.65326 C 440.92535,167.60649 450.10823,170.16422 459.17649,167.75684 C 466.07814,168.03132 477.45426,168.73568 484.35582,167.3337 C 492.05802,173.10222 494.16379,160.05224 493.13935,143.97199 C 493.65314,130.64371 493.23908,127.24425 497.82954,123.22178 C 501.08067,109.83386 493.71608,99.467481 486.8657,96.055281 C 465.67707,89.230911 445.15818,91.086001 424.43845,101.35168 C 419.7125,106.63446 419.8083,121.27875 424.81877,125.87612 z "
           transform="matrix(0.8712116,-0.5519502,0,0.8712116,-112.72477,352.66106)"
           style="opacity:0.45121951;fill:url(#radialGradient2847);fill-opacity:1;fill-rule:evenodd;stroke:none;stroke-width:1px;stroke-linecap:butt;stroke-linejoin:miter;stroke-opacity:1;filter:url(#filter4734)"
           id="path2517" />
      </g>
      <path
         d="M 289.28571 182.71933 A 36.07143 19.642857 0 1 1  217.14285,182.71933 A 36.07143 19.642857 0 1 1  289.28571 182.71933 z"
         transform="matrix(0.94868,0.4155211,-0.5065068,0.7782648,94.472161,-65.414847)"
         style="opacity:0.25;filter:url(#filter3519)"
         id="path2519" />
    </g>
    <g
       transform="matrix(-0.2965363,6.9806099e-2,-8.734028e-3,0.2815091,147.79291,-17.210572)"
       id="g2451">
      <g
         transform="translate(-53.571428,-163.57144)"
         id="g2453">
        <path
           d="M 374.30325,255.19432 C 375.95306,267.62587 375.41558,276.89096 375.2543,287.0756 C 372.75119,295.10942 377.54218,306.65428 382.04712,303.44433 C 392.0555,301.18844 402.17662,304.0075 412.17142,301.35415 C 419.77824,301.65668 432.3167,302.433 439.92342,300.88778 C 448.41257,307.24568 450.7335,292.86234 449.60439,275.13911 C 450.17068,260.44904 449.71431,256.70223 454.77379,252.26879 C 458.35711,237.51296 450.24005,226.08741 442.68974,222.32657 C 419.33618,214.80492 396.72081,216.84956 373.88406,228.16413 C 368.67525,233.98667 368.78083,250.12722 374.30325,255.19432 z "
           style="fill:url(#linearGradient2849);fill-opacity:1;fill-rule:evenodd;stroke:none;stroke-width:1px;stroke-linecap:butt;stroke-linejoin:miter;stroke-opacity:1"
           id="path2455" />
        <path
           d="M 376.4724,255.3442 C 378.03769,267.13884 377.52775,275.92926 377.37473,285.59212 C 374.99987,293.21435 379.5454,304.16775 383.81954,301.12225 C 393.31516,298.98193 402.91776,301.65656 412.40051,299.13915 C 419.61761,299.42618 431.51369,300.16273 438.7307,298.69667 C 446.78494,304.72885 448.98696,291.0824 447.9157,274.26717 C 448.45297,260.3297 448.01999,256.77486 452.82026,252.56854 C 456.21999,238.56871 448.51879,227.72852 441.3553,224.16035 C 419.19821,217.02406 397.74146,218.96394 376.0747,229.69884 C 371.13274,235.22306 371.23292,250.5367 376.4724,255.3442 z "
           style="fill:#ede1cd;fill-opacity:1;fill-rule:evenodd;stroke:none;stroke-width:1px;stroke-linecap:butt;stroke-linejoin:miter;stroke-opacity:1;filter:url(#filter5168)"
           id="path2457" />
        <path
           d="M 424.81877,125.87612 C 426.31564,137.15523 425.82799,145.56143 425.68166,154.80194 C 423.4106,162.09101 427.75745,172.56564 431.84477,169.65326 C 440.92535,167.60649 450.10823,170.16422 459.17649,167.75684 C 466.07814,168.03132 477.45426,168.73568 484.35582,167.3337 C 492.05802,173.10222 494.16379,160.05224 493.13935,143.97199 C 493.65314,130.64371 493.23908,127.24425 497.82954,123.22178 C 501.08067,109.83386 493.71608,99.467481 486.8657,96.055281 C 465.67707,89.230911 445.15818,91.086001 424.43845,101.35168 C 419.7125,106.63446 419.8083,121.27875 424.81877,125.87612 z "
           transform="matrix(0.8712116,0,0,0.8712116,12.275206,146.71417)"
           style="opacity:0.62804877;fill:url(#radialGradient2851);fill-opacity:1;fill-rule:evenodd;stroke:none;stroke-width:1px;stroke-linecap:butt;stroke-linejoin:miter;stroke-opacity:1;filter:url(#filter5544)"
           id="path2459" />
      </g>
      <path
         d="M 424.81877,125.87612 C 426.31564,137.15523 425.82799,145.56143 425.68166,154.80194 C 423.4106,162.09101 427.75745,172.56564 431.84477,169.65326 C 440.92535,167.60649 450.10823,170.16422 459.17649,167.75684 C 466.07814,168.03132 477.45426,168.73568 484.35582,167.3337 C 492.05802,173.10222 494.16379,160.05224 493.13935,143.97199 C 493.65314,130.64371 493.23908,127.24425 497.82954,123.22178 C 501.08067,109.83386 493.71608,99.467481 486.8657,96.055281 C 465.67707,89.230911 445.15818,91.086001 424.43845,101.35168 C 419.7125,106.63446 419.8083,121.27875 424.81877,125.87612 z "
         transform="matrix(0.622834,0,0,0.622834,72.193196,15.719)"
         style="opacity:0.10365852;fill:url(#radialGradient2853);fill-opacity:1;fill-rule:evenodd;stroke:none;stroke-width:1px;stroke-linecap:butt;stroke-linejoin:miter;stroke-opacity:1;filter:url(#filter7056)"
         id="path2461" />
    </g>
    <g
       transform="matrix(-0.2965363,6.9806099e-2,-8.734028e-3,0.2815091,152.32871,-14.534475)"
       id="g2867">
      <g
         transform="translate(-53.571428,-163.57144)"
         id="g2869">
        <path
           d="M 374.30325,255.19432 C 375.95306,267.62587 375.41558,276.89096 375.2543,287.0756 C 372.75119,295.10942 377.54218,306.65428 382.04712,303.44433 C 392.0555,301.18844 402.17662,304.0075 412.17142,301.35415 C 419.77824,301.65668 432.3167,302.433 439.92342,300.88778 C 448.41257,307.24568 450.7335,292.86234 449.60439,275.13911 C 450.17068,260.44904 449.71431,256.70223 454.77379,252.26879 C 458.35711,237.51296 450.24005,226.08741 442.68974,222.32657 C 419.33618,214.80492 396.72081,216.84956 373.88406,228.16413 C 368.67525,233.98667 368.78083,250.12722 374.30325,255.19432 z "
           style="fill:url(#linearGradient2879);fill-opacity:1;fill-rule:evenodd;stroke:none;stroke-width:1px;stroke-linecap:butt;stroke-linejoin:miter;stroke-opacity:1"
           id="path2871" />
        <path
           d="M 376.4724,255.3442 C 378.03769,267.13884 377.52775,275.92926 377.37473,285.59212 C 374.99987,293.21435 379.5454,304.16775 383.81954,301.12225 C 393.31516,298.98193 402.91776,301.65656 412.40051,299.13915 C 419.61761,299.42618 431.51369,300.16273 438.7307,298.69667 C 446.78494,304.72885 448.98696,291.0824 447.9157,274.26717 C 448.45297,260.3297 448.01999,256.77486 452.82026,252.56854 C 456.21999,238.56871 448.51879,227.72852 441.3553,224.16035 C 419.19821,217.02406 397.74146,218.96394 376.0747,229.69884 C 371.13274,235.22306 371.23292,250.5367 376.4724,255.3442 z "
           style="fill:#ede1cd;fill-opacity:1;fill-rule:evenodd;stroke:none;stroke-width:1px;stroke-linecap:butt;stroke-linejoin:miter;stroke-opacity:1;filter:url(#filter5168)"
           id="path2873" />
        <path
           d="M 424.81877,125.87612 C 426.31564,137.15523 425.82799,145.56143 425.68166,154.80194 C 423.4106,162.09101 427.75745,172.56564 431.84477,169.65326 C 440.92535,167.60649 450.10823,170.16422 459.17649,167.75684 C 466.07814,168.03132 477.45426,168.73568 484.35582,167.3337 C 492.05802,173.10222 494.16379,160.05224 493.13935,143.97199 C 493.65314,130.64371 493.23908,127.24425 497.82954,123.22178 C 501.08067,109.83386 493.71608,99.467481 486.8657,96.055281 C 465.67707,89.230911 445.15818,91.086001 424.43845,101.35168 C 419.7125,106.63446 419.8083,121.27875 424.81877,125.87612 z "
           transform="matrix(0.8712116,0,0,0.8712116,12.275206,146.71417)"
           style="opacity:0.62804877;fill:url(#radialGradient2881);fill-opacity:1;fill-rule:evenodd;stroke:none;stroke-width:1px;stroke-linecap:butt;stroke-linejoin:miter;stroke-opacity:1;filter:url(#filter5544)"
           id="path2875" />
      </g>
      <path
         d="M 424.81877,125.87612 C 426.31564,137.15523 425.82799,145.56143 425.68166,154.80194 C 423.4106,162.09101 427.75745,172.56564 431.84477,169.65326 C 440.92535,167.60649 450.10823,170.16422 459.17649,167.75684 C 466.07814,168.03132 477.45426,168.73568 484.35582,167.3337 C 492.05802,173.10222 494.16379,160.05224 493.13935,143.97199 C 493.65314,130.64371 493.23908,127.24425 497.82954,123.22178 C 501.08067,109.83386 493.71608,99.467481 486.8657,96.055281 C 465.67707,89.230911 445.15818,91.086001 424.43845,101.35168 C 419.7125,106.63446 419.8083,121.27875 424.81877,125.87612 z "
         transform="matrix(0.622834,0,0,0.622834,72.193196,15.719)"
         style="opacity:0.10365852;fill:url(#radialGradient2883);fill-opacity:1;fill-rule:evenodd;stroke:none;stroke-width:1px;stroke-linecap:butt;stroke-linejoin:miter;stroke-opacity:1;filter:url(#filter7056)"
         id="path2877" />
    </g>
  </g>
</svg>
